#!OML:ASF H:\BreakDance\Project 1\Capture day 1\Session 1\Male.ASF
:FULLY-SPECIFIED
:DEGREES
812
root 11.3477 15.9191 -13.2575 25.9389 -50.8567 -20.8285
lowerback 4.73355 9.02624 -0.767325
upperback 6.76755 11.9985 -7.62789
thorax 6.06695 6.11576 -7.4664
lowerneck -2.70795 4.36357 2.93541
upperneck 12.4425 4.16507 12.1618
head 3.96661 2.71757 3.41237
rclavicle 1.08139e-013 -1.1291e-013
rhumerus 11.8185 -2.90366 -88.3931
rradius 83.7845
rwrist -35.1085
rhand -20.8539 -19.86
rfingers 7.12502
rthumb 5.51537 -49.7682
lclavicle 1.08139e-013 -1.1291e-013
lhumerus -69.5229 -52.756 101.651
lradius 68.9871
lwrist 10.5044
lhand -12.9035 -40.5735
lfingers 7.12502
lthumb 13.1862 -11.0105
rfemur -14.5055 -28.7612 23.7506
rtibia 51.4018
rfoot -19.7908 -4.00641
rtoes -17.6439
lfemur -60.2545 21.0438 3.26302
ltibia 75.0369
lfoot -13.5414 0.68167
ltoes -22.2885
813
root 11.262 15.877 -13.2366 25.7416 -49.2903 -20.8905
lowerback 4.48365 8.77498 -0.703121
upperback 6.75506 11.6882 -7.50096
thorax 6.12956 5.96133 -7.33725
lowerneck -2.82897 4.24229 2.72609
upperneck 12.8311 3.87731 12.9209
head 4.09677 2.62349 3.68344
rclavicle -9.70069e-014 2.22639e-014
rhumerus 12.96 -3.63256 -87.164
rradius 80.8932
rwrist -35.5154
rhand -20.7995 -19.8816
rfingers 7.12502
rthumb 5.56789 -49.7885
lclavicle -9.70069e-014 2.22639e-014
lhumerus -70.4328 -52.7593 102.009
lradius 69.5125
lwrist 10.0649
lhand -13.058 -40.7869
lfingers 7.12502
lthumb 13.0373 -11.2144
rfemur -13.489 -27.9768 23.5785
rtibia 50.0665
rfoot -20.4721 -8.20454
rtoes -16.1263
lfemur -59.2026 19.6583 4.31968
ltibia 69.671
lfoot -12.8859 1.59806
ltoes -19.8081
814
root 11.178 15.824 -13.2108 25.6026 -47.5418 -21.0339
lowerback 4.30463 8.52373 -0.318219
upperback 6.73161 11.3817 -7.38761
thorax 6.21254 5.83145 -7.40687
lowerneck -2.92723 4.03489 2.59095
upperneck 13.1426 3.48326 13.6017
head 4.21258 2.47512 3.91334
rclavicle 1.27222e-014 1.59028e-014
rhumerus 13.8914 -4.48178 -85.8787
rradius 78.1876
rwrist -36.0496
rhand -20.7709 -19.9733
rfingers 7.12502
rthumb 5.59557 -49.8794
lclavicle 1.27222e-014 1.59028e-014
lhumerus -71.5124 -53.0798 102.542
lradius 70.0602
lwrist 9.7166
lhand -13.1812 -40.8935
lfingers 7.12502
lthumb 12.9185 -11.3134
rfemur -12.2883 -27.1358 23.4929
rtibia 48.2872
rfoot -21.3707 -11.6852
rtoes -13.7399
lfemur -58.3049 18.1439 5.56796
ltibia 64.4654
lfoot -12.0886 2.43679
ltoes -17.4891
815
root 11.0969 15.7586 -13.1813 25.4669 -45.6494 -21.1852
lowerback 4.1753 8.2632 0.242325
upperback 6.71997 11.0623 -7.25002
thorax 6.30683 5.70646 -7.55523
lowerneck -3.06916 3.76452 2.45525
upperneck 13.4146 3.01477 14.1837
head 4.33388 2.28763 4.11082
rclavicle -3.81667e-014 -3.18055e-015
rhumerus 14.642 -5.37353 -84.4568
rradius 75.6881
rwrist -36.8134
rhand -20.7548 -20.0603
rfingers 7.12502
rthumb 5.61113 -49.9661
lclavicle -3.81667e-014 -3.18055e-015
lhumerus -72.7135 -53.6432 103.292
lradius 70.6048
lwrist 9.4757
lhand -13.3467 -40.9378
lfingers 7.12502
lthumb 12.759 -11.3477
rfemur -10.9219 -26.2366 23.4439
rtibia 46.1434
rfoot -22.5003 -14.3135
rtoes -11.995
lfemur -57.598 16.4952 6.94853
ltibia 59.491
lfoot -11.2147 3.23187
ltoes -15.8406
816
root 11.0192 15.6797 -13.15 25.3094 -43.6962 -21.2806
lowerback 4.07565 8.00648 0.834119
upperback 6.71887 10.744 -7.08704
thorax 6.39318 5.5834 -7.70057
lowerneck -3.24959 3.42256 2.34651
upperneck 13.6356 2.46463 14.6314
head 4.45834 2.056 4.25835
rclavicle -8.74653e-014 7.95139e-014
rhumerus 15.2175 -6.27965 -82.8887
rradius 73.4215
rwrist -37.8344
rhand -20.7304 -20.1382
rfingers 7.12502
rthumb 5.63463 -50.0432
lclavicle -8.74653e-014 7.95139e-014
lhumerus -73.9716 -54.3951 104.239
lradius 71.1366
lwrist 9.43417
lhand -13.4979 -40.9445
lfingers 7.12502
lthumb 12.6132 -11.3453
rfemur -9.45048 -25.2679 23.3862
rtibia 43.8171
rfoot -23.633 -15.9588
rtoes -12.307
lfemur -57.0903 14.7686 8.38711
ltibia 54.7896
lfoot -10.3308 3.99318
ltoes -15.2836
817
root 10.9443 15.5893 -13.1187 25.1392 -41.7775 -21.2917
lowerback 3.96706 7.77035 1.31384
upperback 6.72719 10.4476 -6.89727
thorax 6.46704 5.46258 -7.75637
lowerneck -3.49651 3.05412 2.17932
upperneck 13.8055 1.89568 14.9902
head 4.5834 1.8098 4.38626
rclavicle -8.90555e-014 -5.40694e-014
rhumerus 15.6377 -7.16584 -81.1897
rradius 71.4116
rwrist -39.0649
rhand -20.7371 -20.2493
rfingers 7.12502
rthumb 5.62816 -50.1546
lclavicle -8.90555e-014 -5.40694e-014
lhumerus -75.1874 -55.2574 105.314
lradius 71.6379
lwrist 9.62644
lhand -13.5351 -40.844
lfingers 7.12502
lthumb 12.5774 -11.2426
rfemur -7.96377 -24.2267 23.2955
rtibia 41.5683
rfoot -24.525 -16.6177
rtoes -15.488
lfemur -56.757 13.0574 9.81933
ltibia 50.3806
lfoot -9.50028 4.7277
ltoes -16.0599
